HIERARCHY
ROOT hip
{
  OFFSET 0 90.174 2.4664
  CHANNELS 6 Xposition Yposition Zposition Zrotation Xrotation Yrotation
  JOINT abdomen
  {
    OFFSET 0 -1.186 -1.5018
    CHANNELS 6 Xposition Yposition Zposition Zrotation Xrotation Yrotation
    JOINT abdomen2
    {
      OFFSET 0 9.964 0.2134
      CHANNELS 6 Xposition Yposition Zposition Zrotation Xrotation Yrotation
      JOINT chest
      {
        OFFSET 0 13.134 -3.2573
        CHANNELS 6 Xposition Yposition Zposition Zrotation Xrotation Yrotation
        JOINT neck
        {
          OFFSET 0 20.686 -1.6905
          CHANNELS 6 Xposition Yposition Zposition Zrotation Xrotation Yrotation
          JOINT head
          {
            OFFSET 0 7.238 -0.1237
            CHANNELS 6 Xposition Yposition Zposition Zrotation Xrotation Yrotation
            End Site
            {
              OFFSET 0 0 0
            }
          }
        }
        JOINT lCollar
        {
          OFFSET 1.7069 20.075 5.0056
          CHANNELS 6 Xposition Yposition Zposition Zrotation Xrotation Yrotation
          JOINT lShldr
          {
            OFFSET 13.6458 -0.047 -4.849
            CHANNELS 6 Xposition Yposition Zposition Zrotation Xrotation Yrotation
            JOINT lForeArm
            {
              OFFSET 28.3255 -0.9759 2.2888
              CHANNELS 6 Xposition Yposition Zposition Zrotation Xrotation Yrotation
              JOINT lHand
              {
                OFFSET 22.1583 -0.53 10.8316
                CHANNELS 6 Xposition Yposition Zposition Zrotation Xrotation Yrotation
                JOINT lThumb1
                {
                  OFFSET 0.786 0.112 2.5817
                  CHANNELS 6 Xposition Yposition Zposition Zrotation Xrotation Yrotation
                  JOINT lThumb2
                  {
                    OFFSET 0.3601 -0.878 4.2331
                    CHANNELS 6 Xposition Yposition Zposition Zrotation Xrotation Yrotation
                    JOINT lThumb2_End
                    {
                      OFFSET 1.8127 -1.216 2.2227
                      CHANNELS 6 Xposition Yposition Zposition Zrotation Xrotation Yrotation
                      End Site
                      {
                        OFFSET 0.0181 -0.0122 0.0222
                      }
                    }
                  }
                }
                JOINT lCarpal1
                {
                  OFFSET 0.9571 1.114 1.7695
                  CHANNELS 6 Xposition Yposition Zposition Zrotation Xrotation Yrotation
                  JOINT lIndex1
                  {
                    OFFSET 4.1246 0.487 4.1451
                    CHANNELS 6 Xposition Yposition Zposition Zrotation Xrotation Yrotation
                    JOINT lIndex2
                    {
                      OFFSET 3.4052 -1.454 2.7682
                      CHANNELS 6 Xposition Yposition Zposition Zrotation Xrotation Yrotation
                      JOINT lIndex2_End
                      {
                        OFFSET 1.4531 -1.795 1.2713
                        CHANNELS 6 Xposition Yposition Zposition Zrotation Xrotation Yrotation
                        End Site
                        {
                          OFFSET 0.0145 -0.0179 0.0127
                        }
                      }
                    }
                  }
                  JOINT lMid1
                  {
                    OFFSET 5.6954 0.21 2.1184
                    CHANNELS 6 Xposition Yposition Zposition Zrotation Xrotation Yrotation
                    JOINT lMid2
                    {
                      OFFSET 3.9766 -1.54 2.3863
                      CHANNELS 6 Xposition Yposition Zposition Zrotation Xrotation Yrotation
                      JOINT lMid2_End
                      {
                        OFFSET 1.4042 -1.926 1.125
                        CHANNELS 6 Xposition Yposition Zposition Zrotation Xrotation Yrotation
                        End Site
                        {
                          OFFSET 0.014 -0.0193 0.0113
                        }
                      }
                    }
                  }
                }
                JOINT lCarpal2
                {
                  OFFSET 2.0956 0.66 -0.3894
                  CHANNELS 6 Xposition Yposition Zposition Zrotation Xrotation Yrotation
                  JOINT lRing1
                  {
                    OFFSET 5.0395 -0.09 2.4971
                    CHANNELS 6 Xposition Yposition Zposition Zrotation Xrotation Yrotation
                    JOINT lRing2
                    {
                      OFFSET 3.7921 -1.552 1.4806
                      CHANNELS 6 Xposition Yposition Zposition Zrotation Xrotation Yrotation
                      JOINT lRing2_End
                      {
                        OFFSET 1.4655 -1.808 0.9609
                        CHANNELS 6 Xposition Yposition Zposition Zrotation Xrotation Yrotation
                        End Site
                        {
                          OFFSET 0.0147 -0.0181 0.0096
                        }
                      }
                    }
                  }
                  JOINT lPinky1
                  {
                    OFFSET 4.9141 -1.269 0.3591
                    CHANNELS 6 Xposition Yposition Zposition Zrotation Xrotation Yrotation
                    JOINT lPinky2
                    {
                      OFFSET 3.1477 -1.685 0.8462
                      CHANNELS 6 Xposition Yposition Zposition Zrotation Xrotation Yrotation
                      JOINT lPinky2_End
                      {
                        OFFSET 0.8055 -1.585 0.7955
                        CHANNELS 6 Xposition Yposition Zposition Zrotation Xrotation Yrotation
                        End Site
                        {
                          OFFSET 0.0081 -0.0158 0.008
                        }
                      }
                    }
                  }
                }
              }
            }
          }
        }
        JOINT rCollar
        {
          OFFSET -1.7069 20.075 5.0056
          CHANNELS 6 Xposition Yposition Zposition Zrotation Xrotation Yrotation
          JOINT rShldr
          {
            OFFSET -13.6458 -0.047 -4.849
            CHANNELS 6 Xposition Yposition Zposition Zrotation Xrotation Yrotation
            JOINT rForeArm
            {
              OFFSET -28.3255 -0.9759 2.2888
              CHANNELS 6 Xposition Yposition Zposition Zrotation Xrotation Yrotation
              JOINT rHand
              {
                OFFSET -22.1583 -0.53 10.8316
                CHANNELS 6 Xposition Yposition Zposition Zrotation Xrotation Yrotation
                JOINT rThumb1
                {
                  OFFSET -0.786 0.112 2.5817
                  CHANNELS 6 Xposition Yposition Zposition Zrotation Xrotation Yrotation
                  JOINT rThumb2
                  {
                    OFFSET -0.3601 -0.878 4.2331
                    CHANNELS 6 Xposition Yposition Zposition Zrotation Xrotation Yrotation
                    JOINT rThumb2_End
                    {
                      OFFSET -1.8127 -1.216 2.2227
                      CHANNELS 6 Xposition Yposition Zposition Zrotation Xrotation Yrotation
                      End Site
                      {
                        OFFSET -0.0181 -0.0122 0.0222
                      }
                    }
                  }
                }
                JOINT rCarpal1
                {
                  OFFSET -0.9571 1.114 1.7695
                  CHANNELS 6 Xposition Yposition Zposition Zrotation Xrotation Yrotation
                  JOINT rIndex1
                  {
                    OFFSET -4.1246 0.487 4.1451
                    CHANNELS 6 Xposition Yposition Zposition Zrotation Xrotation Yrotation
                    JOINT rIndex2
                    {
                      OFFSET -3.4052 -1.454 2.7682
                      CHANNELS 6 Xposition Yposition Zposition Zrotation Xrotation Yrotation
                      JOINT rIndex2_End
                      {
                        OFFSET -1.4531 -1.795 1.2713
                        CHANNELS 6 Xposition Yposition Zposition Zrotation Xrotation Yrotation
                        End Site
                        {
                          OFFSET -0.0145 -0.018 0.0127
                        }
                      }
                    }
                  }
                  JOINT rMid1
                  {
                    OFFSET -5.6954 0.21 2.1184
                    CHANNELS 6 Xposition Yposition Zposition Zrotation Xrotation Yrotation
                    JOINT rMid2
                    {
                      OFFSET -3.9766 -1.54 2.3863
                      CHANNELS 6 Xposition Yposition Zposition Zrotation Xrotation Yrotation
                      JOINT rMid2_End
                      {
                        OFFSET -1.4042 -1.926 1.125
                        CHANNELS 6 Xposition Yposition Zposition Zrotation Xrotation Yrotation
                        End Site
                        {
                          OFFSET -0.014 -0.0193 0.0113
                        }
                      }
                    }
                  }
                }
                JOINT rCarpal2
                {
                  OFFSET -2.0956 0.66 -0.3894
                  CHANNELS 6 Xposition Yposition Zposition Zrotation Xrotation Yrotation
                  JOINT rRing1
                  {
                    OFFSET -5.0395 -0.09 2.4971
                    CHANNELS 6 Xposition Yposition Zposition Zrotation Xrotation Yrotation
                    JOINT rRing2
                    {
                      OFFSET -3.7921 -1.552 1.4806
                      CHANNELS 6 Xposition Yposition Zposition Zrotation Xrotation Yrotation
                      JOINT rRing2_End
                      {
                        OFFSET -1.4655 -1.808 0.9609
                        CHANNELS 6 Xposition Yposition Zposition Zrotation Xrotation Yrotation
                        End Site
                        {
                          OFFSET -0.0147 -0.0181 0.0096
                        }
                      }
                    }
                  }
                  JOINT rPinky1
                  {
                    OFFSET -4.9141 -1.269 0.3592
                    CHANNELS 6 Xposition Yposition Zposition Zrotation Xrotation Yrotation
                    JOINT rPinky2
                    {
                      OFFSET -3.1477 -1.685 0.8462
                      CHANNELS 6 Xposition Yposition Zposition Zrotation Xrotation Yrotation
                      JOINT rPinky2_End
                      {
                        OFFSET -0.8055 -1.585 0.7955
                        CHANNELS 6 Xposition Yposition Zposition Zrotation Xrotation Yrotation
                        End Site
                        {
                          OFFSET -0.0081 -0.0158 0.008
                        }
                      }
                    }
                  }
                }
              }
            }
          }
        }
      }
    }
  }
  JOINT lThigh
  {
    OFFSET 8.367 -8.2066 0.5982
    CHANNELS 6 Xposition Yposition Zposition Zrotation Xrotation Yrotation
    JOINT lShin
    {
      OFFSET 2.1923 -43.463 -0.4932
      CHANNELS 6 Xposition Yposition Zposition Zrotation Xrotation Yrotation
      JOINT lFoot
      {
        OFFSET 0.7333 -45.8593 -2.6451
        CHANNELS 6 Xposition Yposition Zposition Zrotation Xrotation Yrotation
        End Site
        {
          OFFSET 2.6618 -4.2699 12.3931
        }
      }
    }
  }
  JOINT rThigh
  {
    OFFSET -8.367 -8.2066 0.5982
    CHANNELS 6 Xposition Yposition Zposition Zrotation Xrotation Yrotation
    JOINT rShin
    {
      OFFSET -2.1923 -43.463 -0.4931
      CHANNELS 6 Xposition Yposition Zposition Zrotation Xrotation Yrotation
      JOINT rFoot
      {
        OFFSET -0.7333 -45.8593 -2.6451
        CHANNELS 6 Xposition Yposition Zposition Zrotation Xrotation Yrotation
        End Site
        {
          OFFSET -2.6618 -4.2699 12.3931
        }
      }
    }
  }
}
MOTION
Frames:	4
Frame Time:	0.0333333
0 90.174 2.4664 0 0 -0 0 -1.186 -1.5018 0 0 -0 0 9.964 0.2134 0 0 -0 0 13.134 -3.2573 0 0 -0 0 20.686 -1.6905 0 0 -0 0 7.238 -0.1237 0 0 -0 1.7069 20.075 5.0056 0 0 -0 13.6458 -0.047 -4.849 1.66051 0.0835086 5.75766 28.3255 -0.9759 2.2888 -0.0175111 0.895433 15.7816 22.1583 -0.53 10.8316 7.95139e-016 -1.98785e-016 -0 0.786 0.112 2.5817 5.46658e-016 -3.97569e-016 -0 0.3601 -0.878 4.2331 5.96354e-016 0 -0 1.8127 -1.216 2.2227 3.97569e-016 1.98785e-016 9.54166e-015 0.9571 1.114 1.7695 1.49089e-016 -3.97569e-016 -0 4.1246 0.487 4.1451 6.4605e-016 0 3.18055e-015 3.4052 -1.454 2.7682 5.96354e-016 0 3.18055e-015 1.4531 -1.795 1.2713 8.94531e-016 -1.98785e-016 6.36111e-015 5.6954 0.21 2.1184 6.4605e-016 0 3.18055e-015 3.9766 -1.54 2.3863 5.96354e-016 0 3.18055e-015 1.4042 -1.926 1.125 8.94531e-016 -1.98785e-016 6.36111e-015 2.0956 0.66 -0.3894 1.49089e-016 -3.97569e-016 -0 5.0395 -0.09 2.4971 6.4605e-016 0 3.18055e-015 3.7921 -1.552 1.4806 5.96354e-016 0 3.18055e-015 1.4655 -1.808 0.9609 8.94531e-016 -1.98785e-016 6.36111e-015 4.9141 -1.269 0.3591 6.4605e-016 0 3.18055e-015 3.1477 -1.685 0.8462 5.96354e-016 0 3.18055e-015 0.8055 -1.585 0.7955 8.94531e-016 -1.98785e-016 6.36111e-015 -1.7069 20.075 5.0056 0 0 -0 -13.6458 -0.047 -4.849 -1.4496 0.0636048 -5.0245 -28.3255 -0.9759 2.2888 -1.74811 1.20616 -16.8394 -22.1583 -0.53 10.8316 -1.19271e-015 1.98785e-016 -3.18055e-015 -0.786 0.112 2.5817 -3.97569e-016 1.98785e-016 -3.18055e-015 -0.3601 -0.878 4.2331 -2.98177e-016 1.98785e-016 -3.18055e-015 -1.8127 -1.216 2.2227 -2.98177e-016 3.97569e-016 -0 -0.9571 1.114 1.7695 4.96962e-016 0 -6.36111e-015 -4.1246 0.487 4.1451 -9.93923e-017 3.97569e-016 -0 -3.4052 -1.454 2.7682 -8.94531e-016 5.96354e-016 -0 -1.4531 -1.795 1.2713 -3.97569e-016 3.97569e-016 -0 -5.6954 0.21 2.1184 -9.93923e-017 3.97569e-016 -0 -3.9766 -1.54 2.3863 -8.94531e-016 5.96354e-016 -0 -1.4042 -1.926 1.125 -3.97569e-016 3.97569e-016 -0 -2.0956 0.66 -0.3894 4.96962e-016 0 -6.36111e-015 -5.0395 -0.09 2.4971 -9.93923e-017 3.97569e-016 -0 -3.7921 -1.552 1.4806 -8.94531e-016 5.96354e-016 -0 -1.4655 -1.808 0.9609 -3.97569e-016 3.97569e-016 -0 -4.9141 -1.269 0.3592 -9.93923e-017 3.97569e-016 -0 -3.1477 -1.685 0.8462 -8.94531e-016 5.96354e-016 -0 -0.8055 -1.585 0.7955 -3.97569e-016 3.97569e-016 -0 8.367 -8.2066 0.5982 -4.66115 -1.03232 0.120763 2.1923 -43.463 -0.4932 0.00990601 1.55097 0.177175 0.7333 -45.8593 -2.6451 4.65196 -0.54114 -0.255042 -8.367 -8.2066 0.5982 4.66115 -1.03222 -0.120763 -2.1923 -43.463 -0.4931 -0.00990459 1.5509 -0.177176 -0.7333 -45.8593 -2.6451 -4.65196 -0.541171 0.255041 
-90.0221 0.359348 -9.00396 -160.819 -89.9972 -71.8202 0 -1.186 -1.5018 -0.328218 -0.251877 -0.280098 4.44089e-016 9.964 0.2134 -0.657637 -0.502168 -0.561629 0 13.134 -3.2573 -0.657651 -0.502177 -0.561652 0 20.686 -1.6905 3.82815 -0.785952 -0.0104016 2.22045e-016 7.238 -0.1237 19.1606 -1.65067 -0.145224 1.7069 20.075 5.0056 13.5277 0.84323 6.3746 13.6458 -0.047 -4.849 -75.0175 -0.624625 -99.5019 28.3255 -0.9759 2.2888 -19.6245 -25.5455 -8.42775 22.1583 -0.53 10.8316 -70.8958 31.8527 31.2242 0.786 0.112 2.5817 1.47076e-006 -1.56093e-006 -1.31191e-006 0.3601 -0.878 4.2331 3.77749e-006 5.65398e-007 -7.12786e-007 1.8127 -1.216 2.2227 -2.84993e-006 -2.04725e-006 -2.40338e-006 0.9571 1.114 1.7695 -8.82781e-032 -3.18055e-015 -1.59028e-015 4.1246 0.487 4.1451 1.47076e-006 -1.56093e-006 -1.31191e-006 3.4052 -1.454 2.7682 3.77749e-006 5.65398e-007 -7.12786e-007 1.4531 -1.795 1.2713 -2.84993e-006 -2.04725e-006 -2.40338e-006 5.6954 0.21 2.1184 1.47076e-006 -1.56093e-006 -1.31191e-006 3.9766 -1.54 2.3863 3.77749e-006 5.65398e-007 -7.12786e-007 1.4042 -1.926 1.125 -2.84993e-006 -2.04725e-006 -2.40338e-006 2.0956 0.66 -0.3894 -8.82781e-032 -3.18055e-015 -1.59028e-015 5.0395 -0.09 2.4971 1.47076e-006 -1.56093e-006 -1.31191e-006 3.7921 -1.552 1.4806 3.77749e-006 5.65398e-007 -7.12786e-007 1.4655 -1.808 0.9609 -2.84993e-006 -2.04725e-006 -2.40338e-006 4.9141 -1.269 0.3591 1.47076e-006 -1.56093e-006 -1.31191e-006 3.1477 -1.685 0.8462 3.77749e-006 5.65398e-007 -7.12786e-007 0.8055 -1.585 0.7955 -2.84993e-006 -2.04725e-006 -2.40338e-006 -1.7069 20.075 5.0056 -18.2094 1.54559 -8.1136 -13.6458 -0.047 -4.849 74.7913 -0.546499 102.06 -28.3255 -0.9759 2.2888 24.802 -26.5747 28.5745 -22.1583 -0.53 10.8316 49.7488 17.5864 -6.82126 -0.786 0.112 2.5817 7.95139e-016 3.18055e-015 -5.96354e-015 -0.3601 -0.878 4.2331 -4.60652e-006 -4.09788e-006 -6.95542e-007 -1.8127 -1.216 2.2227 3.97569e-016 0 -2.78299e-015 -0.9571 1.114 1.7695 -1.98785e-015 3.18055e-015 -3.18055e-015 -4.1246 0.487 4.1451 3.97569e-016 0 5.56597e-015 -3.4052 -1.454 2.7682 -4.60652e-006 -4.09788e-006 -6.95542e-007 -1.4531 -1.795 1.2713 -3.57812e-015 0 7.55382e-015 -5.6954 0.21 2.1184 3.97569e-016 0 5.56597e-015 -3.9766 -1.54 2.3863 -4.60652e-006 -4.09788e-006 -6.95542e-007 -1.4042 -1.926 1.125 -3.57812e-015 0 7.55382e-015 -2.0956 0.66 -0.3894 -1.98785e-015 3.18055e-015 -3.18055e-015 -5.0395 -0.09 2.4971 3.97569e-016 0 5.56597e-015 -3.7921 -1.552 1.4806 -4.60652e-006 -4.09788e-006 -6.95542e-007 -1.4655 -1.808 0.9609 -3.57812e-015 0 7.55382e-015 -4.9141 -1.269 0.3592 3.97569e-016 0 5.56597e-015 -3.1477 -1.685 0.8462 -4.60652e-006 -4.09788e-006 -6.95542e-007 -0.8055 -1.585 0.7955 -3.57812e-015 0 7.55382e-015 8.367 -8.2066 0.5982 -15.8031 -13.8989 -9.26335 2.1923 -43.463 -0.4932 12.7589 54.5975 2.34779 0.7333 -45.8593 -2.6451 90.5447 5.82524 -62.9788 -8.367 -8.2066 0.5982 -63.1635 -25.8343 -85.6321 -2.1923 -43.463 -0.4931 152.39 43.7191 -148.902 -0.7333 -45.8593 -2.6451 8.17281 12.7216 19.6198 
-90.0221 0.359348 -9.00396 -160.819 -89.9972 -71.8202 0 -1.186 -1.5018 -0.328218 -0.251877 -0.280098 4.44089e-016 9.964 0.2134 -0.657637 -0.502168 -0.561629 0 13.134 -3.2573 -0.657651 -0.502177 -0.561652 0 20.686 -1.6905 4.13823 -0.770976 -0.00817065 4.44089e-016 7.238 -0.1237 19.3546 -1.71147 -0.245638 1.7069 20.075 5.0056 13.5277 0.84323 6.3746 13.6458 -0.047 -4.849 -75.0175 -0.624625 -99.5019 28.3255 -0.9759 2.2888 -19.6245 -25.5455 -8.42775 22.1583 -0.53 10.8316 -70.8958 31.8527 31.2242 0.786 0.112 2.5817 1.47076e-006 -1.56093e-006 -1.31191e-006 0.3601 -0.878 4.2331 3.77749e-006 5.65398e-007 -7.12786e-007 1.8127 -1.216 2.2227 -2.84993e-006 -2.04725e-006 -2.40338e-006 0.9571 1.114 1.7695 -8.82781e-032 -3.18055e-015 -1.59028e-015 4.1246 0.487 4.1451 1.47076e-006 -1.56093e-006 -1.31191e-006 3.4052 -1.454 2.7682 3.77749e-006 5.65398e-007 -7.12786e-007 1.4531 -1.795 1.2713 -2.84993e-006 -2.04725e-006 -2.40338e-006 5.6954 0.21 2.1184 1.47076e-006 -1.56093e-006 -1.31191e-006 3.9766 -1.54 2.3863 3.77749e-006 5.65398e-007 -7.12786e-007 1.4042 -1.926 1.125 -2.84993e-006 -2.04725e-006 -2.40338e-006 2.0956 0.66 -0.3894 -8.82781e-032 -3.18055e-015 -1.59028e-015 5.0395 -0.09 2.4971 1.47076e-006 -1.56093e-006 -1.31191e-006 3.7921 -1.552 1.4806 3.77749e-006 5.65398e-007 -7.12786e-007 1.4655 -1.808 0.9609 -2.84993e-006 -2.04725e-006 -2.40338e-006 4.9141 -1.269 0.3591 1.47076e-006 -1.56093e-006 -1.31191e-006 3.1477 -1.685 0.8462 3.77749e-006 5.65398e-007 -7.12786e-007 0.8055 -1.585 0.7955 -2.84993e-006 -2.04725e-006 -2.40338e-006 -1.7069 20.075 5.0056 -18.2094 1.54559 -8.1136 -13.6458 -0.047 -4.849 74.7913 -0.546499 102.06 -28.3255 -0.9759 2.2888 24.802 -26.5747 28.5745 -22.1583 -0.53 10.8316 49.7488 17.5864 -6.82126 -0.786 0.112 2.5817 7.95139e-016 3.18055e-015 -5.96354e-015 -0.3601 -0.878 4.2331 -4.60652e-006 -4.09788e-006 -6.95542e-007 -1.8127 -1.216 2.2227 3.97569e-016 0 -2.78299e-015 -0.9571 1.114 1.7695 -1.98785e-015 3.18055e-015 -3.18055e-015 -4.1246 0.487 4.1451 3.97569e-016 0 5.56597e-015 -3.4052 -1.454 2.7682 -4.60652e-006 -4.09788e-006 -6.95542e-007 -1.4531 -1.795 1.2713 -3.57812e-015 0 7.55382e-015 -5.6954 0.21 2.1184 3.97569e-016 0 5.56597e-015 -3.9766 -1.54 2.3863 -4.60652e-006 -4.09788e-006 -6.95542e-007 -1.4042 -1.926 1.125 -3.57812e-015 0 7.55382e-015 -2.0956 0.66 -0.3894 -1.98785e-015 3.18055e-015 -3.18055e-015 -5.0395 -0.09 2.4971 3.97569e-016 0 5.56597e-015 -3.7921 -1.552 1.4806 -4.60652e-006 -4.09788e-006 -6.95542e-007 -1.4655 -1.808 0.9609 -3.57812e-015 0 7.55382e-015 -4.9141 -1.269 0.3592 3.97569e-016 0 5.56597e-015 -3.1477 -1.685 0.8462 -4.60652e-006 -4.09788e-006 -6.95542e-007 -0.8055 -1.585 0.7955 -3.57812e-015 0 7.55382e-015 8.367 -8.2066 0.5982 -15.8031 -13.8989 -9.26335 2.1923 -43.463 -0.4932 12.7589 54.5975 2.34781 0.7333 -45.8593 -2.6451 90.5447 5.82523 -62.9788 -8.367 -8.2066 0.5982 -63.1635 -25.8343 -85.6321 -2.1923 -43.463 -0.4931 152.39 43.7191 -148.902 -0.7333 -45.8593 -2.6451 8.17281 12.7216 19.6198 
-90.0221 0.359349 -9.00396 -160.819 -89.9972 -71.8202 -2.22045e-016 -1.186 -1.5018 -0.328206 -0.251889 -0.2801 0 9.964 0.2134 -0.657637 -0.502169 -0.561629 0 13.134 -3.2573 -0.657651 -0.502177 -0.561652 8.88178e-016 20.686 -1.6905 4.44843 -0.755983 -0.00594519 -4.44089e-016 7.238 -0.1237 19.5485 -1.77261 -0.345862 1.7069 20.075 5.0056 13.5277 0.843232 6.37459 13.6458 -0.047 -4.849 -75.0174 -0.624627 -99.5019 28.3255 -0.9759 2.2888 -19.6245 -25.5455 -8.42775 22.1583 -0.53 10.8316 -70.8959 31.8528 31.2243 0.786 0.112 2.5817 -3.80039e-006 2.89572e-006 -4.07249e-007 0.3601 -0.878 4.2331 3.18055e-015 9.54166e-015 -1.59028e-015 1.8127 -1.216 2.2227 0 0 -4.77083e-015 0.9571 1.114 1.7695 -0 -3.18055e-015 -0 4.1246 0.487 4.1451 -3.80039e-006 2.89572e-006 -4.07249e-007 3.4052 -1.454 2.7682 3.18055e-015 9.54166e-015 -1.59028e-015 1.4531 -1.795 1.2713 0 0 -4.77083e-015 5.6954 0.21 2.1184 -3.80039e-006 2.89572e-006 -4.07249e-007 3.9766 -1.54 2.3863 3.18055e-015 9.54166e-015 -1.59028e-015 1.4042 -1.926 1.125 0 0 -4.77083e-015 2.0956 0.66 -0.3894 -0 -3.18055e-015 -0 5.0395 -0.09 2.4971 -3.80039e-006 2.89572e-006 -4.07249e-007 3.7921 -1.552 1.4806 3.18055e-015 9.54166e-015 -1.59028e-015 1.4655 -1.808 0.9609 0 0 -4.77083e-015 4.9141 -1.269 0.3591 -3.80039e-006 2.89572e-006 -4.07249e-007 3.1477 -1.685 0.8462 3.18055e-015 9.54166e-015 -1.59028e-015 0.8055 -1.585 0.7955 0 0 -4.77083e-015 -1.7069 20.075 5.0056 -18.2094 1.54559 -8.1136 -13.6458 -0.047 -4.849 74.7912 -0.546499 102.06 -28.3255 -0.9759 2.2888 24.802 -26.5747 28.5745 -22.1583 -0.53 10.8316 49.7488 17.5864 -6.82127 -0.786 0.112 2.5817 -2.78299e-015 6.36111e-015 1.59028e-015 -0.3601 -0.878 4.2331 4.77083e-015 -3.18055e-015 -3.97569e-015 -1.8127 -1.216 2.2227 7.95139e-016 1.27222e-014 -1.59028e-015 -0.9571 1.114 1.7695 -3.57812e-015 6.36111e-015 2.78299e-015 -4.1246 0.487 4.1451 -5.1684e-015 -3.18055e-015 2.78299e-015 -3.4052 -1.454 2.7682 -3.18055e-015 3.18055e-015 -3.97569e-016 -1.4531 -1.795 1.2713 -7.15625e-015 -6.36111e-015 -3.97569e-016 -5.6954 0.21 2.1184 -5.1684e-015 -3.18055e-015 2.78299e-015 -3.9766 -1.54 2.3863 -3.18055e-015 3.18055e-015 -3.97569e-016 -1.4042 -1.926 1.125 -7.15625e-015 -6.36111e-015 -3.97569e-016 -2.0956 0.66 -0.3894 -3.57812e-015 6.36111e-015 2.78299e-015 -5.0395 -0.09 2.4971 -5.1684e-015 -3.18055e-015 2.78299e-015 -3.7921 -1.552 1.4806 -3.18055e-015 3.18055e-015 -3.97569e-016 -1.4655 -1.808 0.9609 -7.15625e-015 -6.36111e-015 -3.97569e-016 -4.9141 -1.269 0.3592 -5.1684e-015 -3.18055e-015 2.78299e-015 -3.1477 -1.685 0.8462 -3.18055e-015 3.18055e-015 -3.97569e-016 -0.8055 -1.585 0.7955 -7.15625e-015 -6.36111e-015 -3.97569e-016 8.367 -8.2066 0.5982 -15.8031 -13.8988 -9.26334 2.1923 -43.463 -0.4932 12.7588 54.5973 2.34784 0.7333 -45.8593 -2.6451 90.5447 5.82524 -62.9789 -8.367 -8.2066 0.5982 -63.1635 -25.8343 -85.6321 -2.1923 -43.463 -0.4931 152.39 43.7191 -148.902 -0.7333 -45.8593 -2.6451 8.17282 12.7217 19.6198 
